<svg width="92" height="92" viewBox="0 0 92 92" fill="none" xmlns="http://www.w3.org/2000/svg">
<g filter="url(#filter0_d)">
<circle cx="46" cy="46" r="30" fill="#2F2926"/>
</g>
<circle r="11" transform="matrix(-1 0 0 1 65 23)" fill="#E5674E"/>
<path d="M63.0114 21.228H62.6034C62.5634 21.06 62.5234 20.856 62.4834 20.616C62.4434 20.368 62.4034 20.12 62.3634 19.872C62.3314 19.624 62.3034 19.388 62.2794 19.164C62.2554 18.932 62.2434 18.744 62.2434 18.6H67.8594V19.164C67.4274 19.836 67.0634 20.468 66.7674 21.06C66.4714 21.652 66.2234 22.252 66.0234 22.86C65.8234 23.468 65.6554 24.104 65.5194 24.768C65.3914 25.432 65.2794 26.176 65.1834 27H63.4794C63.7674 25.84 64.1394 24.736 64.5954 23.688C65.0514 22.64 65.5914 21.584 66.2154 20.52L66.6594 19.944L66.0594 20.004H63.4794L63.0114 21.228Z" fill="white"/>
<path fill-rule="evenodd" clip-rule="evenodd" d="M48.0486 38.0488V40.7723H43.9511V38.0488C43.9511 36.9173 44.8684 36 45.9999 36C47.1314 36 48.0486 36.9173 48.0486 38.0488ZM41.9511 38.0488C41.9511 35.8127 43.7638 34 45.9999 34C48.2359 34 50.0486 35.8127 50.0486 38.0488V40.7723V41.4227H51.5428C52.6103 41.4227 53.4897 42.2612 53.5405 43.3276L53.9978 52.9314C54.0521 54.0721 53.142 55.0266 52.0001 55.0266H40C38.8581 55.0266 37.948 54.0721 38.0023 52.9314L38.4596 43.3276C38.5104 42.2612 39.3898 41.4227 40.4574 41.4227H41.9511V40.7723V38.0488ZM40.4574 43.4227H51.5428L52.0001 53.0266H40L40.4574 43.4227Z" fill="white"/>
<defs>
<filter id="filter0_d" x="0" y="0" width="92" height="92" filterUnits="userSpaceOnUse" color-interpolation-filters="sRGB">
<feFlood flood-opacity="0" result="BackgroundImageFix"/>
<feColorMatrix in="SourceAlpha" type="matrix" values="0 0 0 0 0 0 0 0 0 0 0 0 0 0 0 0 0 0 127 0"/>
<feOffset/>
<feGaussianBlur stdDeviation="8"/>
<feColorMatrix type="matrix" values="0 0 0 0 0 0 0 0 0 0 0 0 0 0 0 0 0 0 0.12 0"/>
<feBlend mode="normal" in2="BackgroundImageFix" result="effect1_dropShadow"/>
<feBlend mode="normal" in="SourceGraphic" in2="effect1_dropShadow" result="shape"/>
</filter>
</defs>
</svg>
